HIERARCHY
ROOT Hips
{
    OFFSET   0.000000   0.000000   0.000000
    CHANNELS 6 Xposition Yposition Zposition Zrotation Xrotation Yrotation
    JOINT Chest
    {
        OFFSET   0.000000   8.007240   0.000000
        CHANNELS 3 Zrotation Xrotation Yrotation
        JOINT Chest2
        {
            OFFSET   0.000000  22.077100   0.000000
            CHANNELS 3 Zrotation Xrotation Yrotation
            JOINT Neck
            {
                OFFSET   0.000000  23.254800   0.000000
                CHANNELS 3 Zrotation Xrotation Yrotation
                JOINT Head
                {
                    OFFSET   0.000000  14.370000   1.956600
                    CHANNELS 3 Zrotation Xrotation Yrotation
                    End Site
                    {
                        OFFSET   0.000000  19.566000   0.000000
                    }
                }
            }
            JOINT LeftCollar
            {
                OFFSET   3.911900  19.017000  -0.467064
                CHANNELS 3 Zrotation Xrotation Yrotation
                JOINT LeftShoulder
                {
                    OFFSET  10.383700   0.000000   0.000000
                    CHANNELS 3 Zrotation Xrotation Yrotation
                    JOINT LeftElbow
                    {
                        OFFSET  26.662100   0.001476   0.000517
                        CHANNELS 3 Zrotation Xrotation Yrotation
                        JOINT LeftWrist
                        {
                            OFFSET  28.869000  -0.000025  -0.000106
                            CHANNELS 3 Zrotation Xrotation Yrotation
                            JOINT LeftFinger0
                            {
                                OFFSET   2.044660  -2.323460   3.252850
                                CHANNELS 3 Zrotation Xrotation Yrotation
                                JOINT LeftFinger01
                                {
                                    OFFSET   3.088130   0.000000   0.000000
                                    CHANNELS 3 Zrotation Xrotation Yrotation
                                    JOINT LeftFinger02
                                    {
                                        OFFSET   2.639460   0.000000   0.000000
                                        CHANNELS 3 Zrotation Xrotation Yrotation
                                        End Site
                                        {
                                            OFFSET   2.582190   0.000000   0.000000
                                        }
                                    }
                                }
                            }
                            JOINT LeftFinger1
                            {
                                OFFSET   8.364480   0.000000   3.252850
                                CHANNELS 3 Zrotation Xrotation Yrotation
                                JOINT LeftFinger11
                                {
                                    OFFSET   4.646930   0.000000   0.000000
                                    CHANNELS 3 Zrotation Xrotation Yrotation
                                    JOINT LeftFinger12
                                    {
                                        OFFSET   2.323460   0.000000   0.000000
                                        CHANNELS 3 Zrotation Xrotation Yrotation
                                        End Site
                                        {
                                            OFFSET   2.273050   0.000000   0.000000
                                        }
                                    }
                                }
                            }
                            JOINT LeftFinger2
                            {
                                OFFSET   8.364490   0.000015   1.078090
                                CHANNELS 3 Zrotation Xrotation Yrotation
                                JOINT LeftFinger21
                                {
                                    OFFSET   5.111620   0.000000   0.000000
                                    CHANNELS 3 Zrotation Xrotation Yrotation
                                    JOINT LeftFinger22
                                    {
                                        OFFSET   2.788160   0.000016   0.000000
                                        CHANNELS 3 Zrotation Xrotation Yrotation
                                        End Site
                                        {
                                            OFFSET   2.727660   0.000000   0.000000
                                        }
                                    }
                                }
                            }
                            JOINT LeftFinger3
                            {
                                OFFSET   7.899780   0.000017  -1.078090
                                CHANNELS 3 Zrotation Xrotation Yrotation
                                JOINT LeftFinger31
                                {
                                    OFFSET   4.646930   0.000000   0.000000
                                    CHANNELS 3 Zrotation Xrotation Yrotation
                                    JOINT LeftFinger32
                                    {
                                        OFFSET   2.323470   0.000000   0.000000
                                        CHANNELS 3 Zrotation Xrotation Yrotation
                                        End Site
                                        {
                                            OFFSET   2.273050   0.000000   0.000000
                                        }
                                    }
                                }
                            }
                            JOINT LeftFinger4
                            {
                                OFFSET   7.435090   0.000000  -3.252850
                                CHANNELS 3 Zrotation Xrotation Yrotation
                                JOINT LeftFinger41
                                {
                                    OFFSET   3.717550   0.000000   0.000000
                                    CHANNELS 3 Zrotation Xrotation Yrotation
                                    JOINT LeftFinger42
                                    {
                                        OFFSET   1.858770   0.000000   0.000000
                                        CHANNELS 3 Zrotation Xrotation Yrotation
                                        End Site
                                        {
                                            OFFSET   1.818440   0.000000   0.000000
                                        }
                                    }
                                }
                            }
                        }
                    }
                }
            }
            JOINT RightCollar
            {
                OFFSET  -3.911900  19.017000  -0.467063
                CHANNELS 3 Zrotation Xrotation Yrotation
                JOINT RightShoulder
                {
                    OFFSET -10.383700   0.000019   0.000000
                    CHANNELS 3 Zrotation Xrotation Yrotation
                    JOINT RightElbow
                    {
                        OFFSET -26.662100   0.001175   0.000102
                        CHANNELS 3 Zrotation Xrotation Yrotation
                        JOINT RightWrist
                        {
                            OFFSET -28.869000   0.000016  -0.000079
                            CHANNELS 3 Zrotation Xrotation Yrotation
                            JOINT RightFinger0
                            {
                                OFFSET  -2.044660  -2.323490   3.252850
                                CHANNELS 3 Zrotation Xrotation Yrotation
                                JOINT RightFinger01
                                {
                                    OFFSET  -3.088140   0.000000   0.000000
                                    CHANNELS 3 Zrotation Xrotation Yrotation
                                    JOINT RightFinger02
                                    {
                                        OFFSET  -2.639460   0.000000   0.000000
                                        CHANNELS 3 Zrotation Xrotation Yrotation
                                        End Site
                                        {
                                            OFFSET  -2.582190   0.000000   0.000000
                                        }
                                    }
                                }
                            }
                            JOINT RightFinger1
                            {
                                OFFSET  -8.364480   0.000000   3.252850
                                CHANNELS 3 Zrotation Xrotation Yrotation
                                JOINT RightFinger11
                                {
                                    OFFSET  -4.646930   0.000000   0.000000
                                    CHANNELS 3 Zrotation Xrotation Yrotation
                                    JOINT RightFinger12
                                    {
                                        OFFSET  -2.323470   0.000000   0.000000
                                        CHANNELS 3 Zrotation Xrotation Yrotation
                                        End Site
                                        {
                                            OFFSET  -2.273050   0.000000   0.000000
                                        }
                                    }
                                }
                            }
                            JOINT RightFinger2
                            {
                                OFFSET  -8.364480   0.000000   1.078090
                                CHANNELS 3 Zrotation Xrotation Yrotation
                                JOINT RightFinger21
                                {
                                    OFFSET  -5.111620   0.000000   0.000000
                                    CHANNELS 3 Zrotation Xrotation Yrotation
                                    JOINT RightFinger22
                                    {
                                        OFFSET  -2.788160   0.000000   0.000000
                                        CHANNELS 3 Zrotation Xrotation Yrotation
                                        End Site
                                        {
                                            OFFSET  -2.727660   0.000000   0.000000
                                        }
                                    }
                                }
                            }
                            JOINT RightFinger3
                            {
                                OFFSET  -7.899780   0.000000  -1.078090
                                CHANNELS 3 Zrotation Xrotation Yrotation
                                JOINT RightFinger31
                                {
                                    OFFSET  -4.646930   0.000000   0.000000
                                    CHANNELS 3 Zrotation Xrotation Yrotation
                                    JOINT RightFinger32
                                    {
                                        OFFSET  -2.323470   0.000000   0.000000
                                        CHANNELS 3 Zrotation Xrotation Yrotation
                                        End Site
                                        {
                                            OFFSET  -2.273050   0.000000   0.000000
                                        }
                                    }
                                }
                            }
                            JOINT RightFinger4
                            {
                                OFFSET  -7.435090   0.000000  -3.252850
                                CHANNELS 3 Zrotation Xrotation Yrotation
                                JOINT RightFinger41
                                {
                                    OFFSET  -3.717550   0.000000   0.000000
                                    CHANNELS 3 Zrotation Xrotation Yrotation
                                    JOINT RightFinger42
                                    {
                                        OFFSET  -1.858770   0.000000   0.000000
                                        CHANNELS 3 Zrotation Xrotation Yrotation
                                        End Site
                                        {
                                            OFFSET  -1.818440   0.000000   0.000000
                                        }
                                    }
                                }
                            }
                        }
                    }
                }
            }
        }
    }
    JOINT LeftHip
    {
        OFFSET   9.783040   0.000000   0.000000
        CHANNELS 3 Zrotation Xrotation Yrotation
        JOINT LeftKnee
        {
            OFFSET   0.000032 -41.789100  -0.002222
            CHANNELS 3 Zrotation Xrotation Yrotation
            JOINT LeftAnkle
            {
                OFFSET   0.000087 -41.133200  -0.000135
                CHANNELS 3 Zrotation Xrotation Yrotation
                JOINT LeftToe
                {
                    OFFSET   0.000000  -6.358960  14.674500
                    CHANNELS 3 Zrotation Xrotation Yrotation
                    End Site
                    {
                        OFFSET   0.000000   0.000000   3.913200
                    }
                }
            }
        }
    }
    JOINT RightHip
    {
        OFFSET  -9.783040   0.000000   0.000000
        CHANNELS 3 Zrotation Xrotation Yrotation
        JOINT RightKnee
        {
            OFFSET   0.000047 -41.789100  -0.000896
            CHANNELS 3 Zrotation Xrotation Yrotation
            JOINT RightAnkle
            {
                OFFSET  -0.000117 -41.133300  -0.000248
                CHANNELS 3 Zrotation Xrotation Yrotation
                JOINT RightToe
                {
                    OFFSET   0.000000  -6.358970  14.674500
                    CHANNELS 3 Zrotation Xrotation Yrotation
                    End Site
                    {
                        OFFSET   0.000000   0.000000   3.913200
                    }
                }
            }
        }
    }
}
MOTION
Frames: 5
Frame Time:   0.016667
  0.507993  89.684900   1.655830  -2.954620 -10.405900  -3.016740   2.432990  14.398100   0.172465   5.073170  28.790000  -0.327217  -2.981140  -5.205250  -0.270687  -5.011030 -10.469200   5.623540  -9.351000  -7.204340   0.833966 -43.335200   7.018910 -77.124500   7.518810  -4.836110 -42.538900 -15.559100 -30.932500  -2.736560  45.045900  25.037600 -56.287700 -13.490300   0.001433   0.000513  -1.745160   0.000361  -0.000598 -32.139200   4.718610  -7.458410 -26.547600  -0.000277  -0.001277 -18.583300   0.000481  -0.006595 -28.393500   1.859980  -3.437160 -35.605700  -0.003930  -0.001371 -23.713400  -0.001996  -0.002265 -28.680300  -2.609170   4.755710 -41.790100  -0.000499  -0.001566 -27.832200   0.004034  -0.000000 -38.898900  -4.012000   4.955930 -58.609100   0.004669   0.000646 -39.033700  -0.000668  -0.006306  -3.600440  -7.866370  12.058600  29.831000 -10.865900  66.500500 -12.335300   1.780930  26.557800  14.112800 -47.345100  31.437700 -49.311000  30.796100  61.636900  11.129300   0.006841  -0.001289   0.564627   0.002029  -0.000000  38.502200   4.255180   5.329960  31.664600  -0.001588   0.006310  22.165200  -0.004314   0.000524  28.623600   3.276250   5.980130  42.316200   0.000664   0.001434  28.182600  -0.002073  -0.004635  29.123100   0.821095   1.477450  43.703300   0.000417  -0.004983  29.106400   0.002327   0.005853  36.775000  -1.172890  -1.566370  55.188400  -0.005538  -0.006773  36.755500   0.010512   0.005970   3.783790  14.671200   6.525890   1.667490   0.040238  10.952800  -4.029860  -1.510330   2.679700   0.000000   0.000000   0.000000   0.159175   8.146930  -5.928830   0.735808   6.837990  -5.434530  -2.559940  -2.442750   0.656820   0.000000   0.000000  -0.000000
  0.526275  89.679700   1.700300  -2.987650 -10.357400  -3.130950   2.411490  14.439400   0.229788   5.014940  28.875000  -0.202973  -2.974340  -5.241270  -0.272383  -4.996850 -10.542300   5.601330  -9.377450  -7.155480   0.869608 -43.568100   7.567870 -77.625400   7.564150  -4.712580 -42.860400 -15.678100 -30.821500  -2.894110  45.294000  25.416400 -56.544500 -13.474000   0.001464   0.000485  -1.737020   0.000357  -0.000602 -31.975700   4.667480  -7.440100 -26.410600  -0.000276  -0.001258 -18.487400   0.000505  -0.006597 -28.380400   1.786500  -3.302090 -35.424500  -0.003972  -0.001428 -23.592700  -0.001997  -0.002234 -28.672300  -2.686540   4.898470 -41.739800  -0.000503  -0.001601 -27.798700   0.003989   0.000000 -38.815200  -4.080520   5.062160 -58.497300   0.004619   0.000608 -38.959200  -0.000670  -0.006278  -3.562290  -7.749730  12.207100  30.127400 -10.493600  67.501300 -12.328100   1.952170  26.848900  14.238900 -47.511500  31.616200 -49.318800  30.790500  61.619800  10.966700   0.006849  -0.001226   0.483334   0.002066  -0.000038  38.458700   4.211730   5.280880  31.626400  -0.001593   0.006308  22.138500  -0.004307   0.000549  28.626000   3.244820   5.922830  42.285600   0.000660   0.001482  28.162200  -0.002084  -0.004630  29.102500   0.753533   1.362990  43.672000   0.000411  -0.004980  29.085600   0.002342   0.006030  36.750700  -1.224700  -1.635890  55.152300  -0.005551  -0.006769  36.731500   0.010518   0.006137   3.768820  14.686000   6.518460   1.688610   0.020882  11.034600  -4.031410  -1.520230   2.738070   0.000000   0.000000   0.000000   0.145023   8.096660  -5.954680   0.744116   6.883820  -5.358290  -2.564020  -2.443150   0.718850   0.000000   0.000000  -0.000000
  0.543498  89.674900   1.748780  -3.017010 -10.316400  -3.230960   2.393370  14.474800   0.283193   4.960840  28.948200  -0.087191  -2.964800  -5.271240  -0.273486  -4.982960 -10.603300   5.580260  -9.402210  -7.100250   0.900017 -43.716800   8.078270 -78.086500   7.562150  -4.646390 -43.156000 -15.714400 -30.550000  -2.944560  45.599300  25.799400 -56.800400 -13.433200   0.001495   0.000457  -1.716630   0.000353  -0.000605 -31.809300   4.644750  -7.437320 -26.272900  -0.000275  -0.001238 -18.391000   0.000530  -0.006599 -28.363300   1.746470  -3.231240 -35.232900  -0.004013  -0.001484 -23.465100  -0.001998  -0.002200 -28.668300  -2.717460   4.955640 -41.644500  -0.000507  -0.001635 -27.735200   0.003946   0.000000 -38.687200  -4.101030   5.103800 -58.304900   0.004568   0.000570 -38.831100  -0.000672  -0.006251  -3.522680  -7.625450  12.342900  30.331900 -10.104400  68.438500 -12.335700   2.153820  27.163100  14.431000 -47.700600  31.845300 -49.304200  30.782000  61.606200  10.876100   0.006858  -0.001179   0.438038   0.002101  -0.000095  38.442000   4.136730   5.194330  31.607000  -0.001597   0.006306  22.124900  -0.004303   0.000576  28.631900   3.190070   5.822550  42.277800   0.000654   0.001532  28.157000  -0.002099  -0.004625  29.099000   0.660485   1.191840  43.662000   0.000405  -0.004976  29.078900   0.002358   0.006207  36.739700  -1.315650  -1.758510  55.142200  -0.005565  -0.006766  36.724700   0.010525   0.006303   3.753860  14.700800   6.511030   1.711930   0.001537  11.112300  -4.036300  -1.536880   2.770210  -0.000000   0.000000  -0.000000   0.132301   8.083910  -5.970010   0.760969   6.898470  -5.316480  -2.566070  -2.446170   0.776655  -0.000000   0.000000   0.000000
  0.562016  89.672500   1.803010  -3.042850 -10.283300  -3.318350   2.381720  14.506700   0.330609   4.921880  29.014200   0.014408  -2.961480  -5.295630  -0.274503  -4.982000 -10.652100   5.555800  -9.416290  -7.024240   0.943961 -43.756700   8.548150 -78.531800   7.628870  -4.638810 -43.430400 -15.604400 -30.094600  -2.848260  45.894400  26.069900 -56.907300 -13.339500   0.001527   0.000458  -1.669790   0.000359  -0.000601 -31.645100   4.642180  -7.481290 -26.139600  -0.000283  -0.001222 -18.297700   0.000544  -0.006603 -28.346100   1.741650  -3.224310 -35.067900  -0.004070  -0.001543 -23.355200  -0.001987  -0.002162 -28.668100  -2.704430   4.932320 -41.536700  -0.000513  -0.001672 -27.663400   0.003914   0.000000 -38.570300  -4.074080   5.090440 -58.126600   0.004527   0.000525 -38.712400  -0.000675  -0.006225  -3.470330  -7.491230  12.483000  30.571800  -9.749590  69.211900 -12.319400   2.386580  27.579800  14.749400 -47.916300  32.147800 -49.399000  30.881600  61.702500  10.864900   0.006857  -0.001179   0.432444   0.002139  -0.000128  38.429000   4.053990   5.093490  31.589500  -0.001596   0.006304  22.112700  -0.004307   0.000609  28.638600   3.128270   5.707900  42.273500   0.000642   0.001576  28.154100  -0.002104  -0.004624  29.091500   0.557897   1.005640  43.646400   0.000421  -0.004981  29.068500   0.002345   0.006385  36.730000  -1.416170  -1.891770  55.134900  -0.005565  -0.006772  36.719900   0.010524   0.006475   3.750900  14.688900   6.534000   1.723240   0.073256  11.176800  -4.053770  -1.598220   2.766880  -0.000000   0.000000   0.000000   0.126189   8.076830  -5.939700   0.778981   6.920920  -5.314090  -2.570220  -2.460940   0.820437   0.000000   0.000000  -0.000000
  0.578361  89.671200   1.858790  -3.067750 -10.253800  -3.392320   2.373570  14.533500   0.372204   4.895500  29.069700   0.102761  -2.960810  -5.316790  -0.275482  -4.981660 -10.694200   5.535500  -9.422840  -6.935570   1.001720 -43.775900   8.981650 -78.943500   7.697530  -4.632840 -43.680900 -15.366500 -29.632200  -2.670550  46.015400  26.215900 -56.900300 -13.273000   0.001559   0.000461  -1.636540   0.000368  -0.000594 -31.479800   4.639600  -7.525270 -26.006000  -0.000290  -0.001206 -18.204200   0.000559  -0.006607 -28.332500   1.736830  -3.217390 -34.936500  -0.004124  -0.001601 -23.267700  -0.001975  -0.002124 -28.666800  -2.691400   4.909010 -41.430700  -0.000525  -0.001710 -27.592800   0.003882  -0.000000 -38.463400  -4.047120   5.077080 -57.964400   0.004486   0.000477 -38.604300  -0.000676  -0.006197  -3.412720  -7.361010  12.623400  30.857300  -9.399630  69.867000 -12.318300   2.642360  28.065100  14.988400 -48.029700  32.384400 -49.553300  31.064100  61.897700  10.853700   0.006857  -0.001179   0.426851   0.002179  -0.000158  38.418000   4.002790   5.030140  31.576900  -0.001594   0.006303  22.103900  -0.004312   0.000644  28.642800   3.089780   5.636250  42.267600   0.000627   0.001619  28.150300  -0.002106  -0.004624  29.079900   0.470330   0.846392  43.625600   0.000438  -0.004985  29.054600   0.002332   0.006564  36.719800  -1.486150  -1.991060  55.118900  -0.005566  -0.006779  36.709200   0.010522   0.006646   3.754290  14.676600   6.570480   1.724630   0.144946  11.233700  -4.065690  -1.661110   2.757990  -0.000000   0.000000  -0.000000   0.119162   8.071770  -5.894940   0.790065   6.947960  -5.311760  -2.575910  -2.485100   0.841182   0.000000   0.000000   0.000000
